# ProBuilder 5.0.4
# https://unity3d.com/unity/features/worldbuilding/probuilder
# 14/04/2022 20:15:58

mtllib ./OneWayShield.mtl
o OneWayShield

g OneWayShield
v -0.9163755 6.34151 8.128103
v -1.0187 6.34151 8.128103
v -1.0187 6.404571 8.046379
v -0.916376 6.404571 8.046379
v -0.9163761 5.205184 8.132656
v -1.0187 5.205184 8.132656
v -1.0187 5.266793 8.050932
v -0.916376 5.266793 8.050932
v -1.0187 6.339004 4.598736
v -0.9163756 6.339004 4.598736
v -0.9163741 6.414211 4.668718
v -1.018698 6.414211 4.668718
v -1.0187 5.205184 4.592299
v -0.9163761 5.205184 4.592299
v -0.916376 5.266793 4.662283
v -1.0187 5.266793 4.662283
v -0.9435178 5.170176 8.052015
v -0.9903678 5.170176 8.052015
v -0.9435175 6.334004 8.052014
v -0.9903673 6.334004 8.052014
v -0.9903678 5.170176 4.662382
v -0.9435178 5.170176 4.662382
v -0.9903674 6.334004 4.662382
v -0.9435176 6.334004 4.662382
v -1.0187 5.235989 8.091794
v -1.0187 5.328403 7.532657
v -1.0187 5.297598 7.791794
v -1.0187 4.86757 6.361011
v -1.0187 5.328403 6.362478
v -1.0187 4.535409 8.132655
v -1.0387 4.535403 8.132655
v -1.038699 3.843092 8.132655
v -1.038699 3.843091 6.362476
v -1.0387 4.867564 6.36101
v -1.038699 3.843091 4.592298
v -1.0387 4.518928 4.592299
v -1.0187 4.518934 4.592299
v -1.0187 5.235989 4.627291
v -1.0187 5.297598 4.927291
v -1.0187 5.328403 5.192299
v -0.9903669 5.170176 7.629539
v -0.9903669 6.40431 7.629539
v -0.943517 6.40431 7.62954
v -0.943517 5.170176 7.62954
v -0.990367 5.170176 5.880184
v -0.9903673 5.170176 5.110689
v -0.9903669 6.333871 5.110689
v -0.9997935 6.334421 5.689407
v -0.9340897 6.334421 5.689408
v -0.943517 6.333871 5.110689
v -0.9435173 5.170176 5.11069
v -0.943517 5.170176 5.880184
v -0.9903669 5.170176 6.754862
v -0.9903664 5.170176 5.939454
v -0.9903664 6.40431 5.939454
v -0.9903669 6.40431 6.754862
v -0.943517 6.40431 6.754862
v -0.9435164 6.40431 5.939454
v -0.9435164 5.170176 5.939454
v -0.943517 5.170176 6.754862
v -0.9903672 5.170176 5.073939
v -0.9903672 6.40431 5.073939
v -0.9435172 6.40431 5.073939
v -0.9435172 5.170176 5.073939
v -0.9903665 5.170176 6.828311
v -0.9997929 6.330587 7.019085
v -0.9340894 6.330587 7.019086
v -0.9435166 5.170176 6.828312
v -0.9903665 5.170176 7.591507
v -0.9903663 6.331138 7.591506
v -0.9435164 6.331138 7.591507
v -0.9435166 5.170176 7.591508
v -0.9163761 5.235989 8.091794
v -0.9163761 5.235989 4.627291
v -0.9163759 4.91087 6.36101
v -0.9163761 5.297598 4.927291
v -0.9163758 4.524141 4.592299
v -0.8963758 4.524143 4.592299
v -0.8963754 3.8431 4.592299
v -0.8963754 3.8431 6.362477
v -0.8963759 4.910872 6.36101
v -0.8963754 3.8431 8.132656
v -0.8963757 4.524143 8.132656
v -0.9163758 4.524141 8.132656
v -0.9163761 5.297598 7.791794
v -0.9163761 5.328403 7.532657
v -0.9163761 5.328403 6.362478
v -0.9163761 5.328403 5.192299
v -1.018699 3.843097 8.132655
v -0.9163753 3.843097 8.132656
v -1.018699 3.843097 4.592299
v -0.9163754 3.843097 4.592299
v -1.018699 3.843097 6.362477
v -0.9163753 3.843097 6.362477

vt 0.5116223 0.4268967
vt 1.38233E-06 0.4268967
vt -9.136802E-07 0.4519443
vt 0.5116199 0.4519443
vt 0.5116193 0.5105783
vt -7.903267E-07 0.5105783
vt 0.5116224 0.8893541
vt 1.450984E-06 0.8893541
vt 8.466126E-07 0.5311435
vt -0.5116199 0.5311435
vt 8.466126E-07 0.9104034
vt -0.5116199 0.9104034
vt -2.027959E-06 0.8071204
vt -0.5116221 0.8071204
vt -0.5116295 0.8347701
vt -9.453629E-06 0.8347701
vt 7.903267E-07 0.5117593
vt -0.5116193 0.5117593
vt -2.027879E-06 0.8897006
vt -0.5116221 0.8897006
vt 0.5116199 0.5323284
vt -8.466126E-07 0.5323284
vt 0.5116295 0.9148026
vt 9.452679E-06 0.9148026
vt 0.141094 -1.341105E-07
vt 2.384186E-07 -1.341105E-07
vt 0.1410948 0.148504
vt 1.862645E-06 0.148504
vt -0.141094 -1.192093E-07
vt -0.1410947 0.148504
vt 0.5900594 0.5117614
vt 0.583249 0.5220296
vt 0.5764386 0.5322978
vt 0.5756799 0.9115568
vt 0.5893006 0.8905364
vt 0.4900594 0.552834
vt 0.533249 0.5425659
vt 0.2947851 0.3992233
vt 0.2950296 0.552834
vt 0.5900592 0.288503
vt 0.5900592 0.05773091
vt 0.2950295 0.05773079
vt -2.236077E-07 0.0577317
vt -1.547699E-07 0.2830107
vt 0.00583183 0.5220296
vt 0.01166379 0.5322978
vt 0.05583184 0.5425659
vt 0.09999988 0.552834
vt 0.001072687 0.8897011
vt 0.01273631 0.9147704
vt 1.788139E-07 -0.001526028
vt -0.02916034 -0.001526102
vt -0.02916034 0.1558923
vt 1.341105E-07 0.1469245
vt 0.0005035996 0.003220141
vt 0.0005036294 0.1516863
vt 0.02966392 0.1606531
vt 0.02966392 0.003218174
vt -0.1410965 -0.02851558
vt -0.1410948 0.000628233
vt -1.877546E-06 0.0006282032
vt -3.114343E-06 -0.02851564
vt 0.1410965 -0.02916059
vt 3.106892E-06 -0.02916063
vt -0.1499062 -0.001526117
vt -0.2030191 -0.001526102
vt -0.2030191 0.1469074
vt -0.1630743 0.1474623
vt 0.1636401 0.1521364
vt 0.2035218 0.1516557
vt 0.2035218 0.003206447
vt 0.1504092 0.003210038
vt 0.02838588 -0.1624458
vt -2.942979E-06 -0.2023908
vt -0.1410963 -0.2023907
vt -0.1694875 -0.1624458
vt 0.1410962 -0.1499065
vt 0.1410954 -0.2030194
vt 2.004206E-06 -0.2030194
vt 2.82377E-06 -0.1499065
vt -0.08953328 -0.001526102
vt -0.1458152 -0.001526147
vt -0.1458152 0.1558922
vt -0.08953328 0.1558922
vt 0.09003657 0.1606491
vt 0.1463182 0.1606452
vt 0.1463182 0.003210336
vt 0.09003657 0.003214121
vt -0.1410981 -0.1451703
vt -4.656613E-06 -0.1451704
vt -0.1410964 -0.08888845
vt -2.972782E-06 -0.0888885
vt 0.1410963 -0.08953354
vt 0.141098 -0.1458155
vt 4.649162E-06 -0.1458155
vt 2.965331E-06 -0.08953358
vt -0.2055557 -0.001526117
vt -0.2055557 0.1558922
vt -0.2339626 -0.001526058
vt -0.2339626 0.1469244
vt 0.2060584 0.1606412
vt 0.2060584 0.003206268
vt 0.2344652 0.1516705
vt 0.2344652 0.003204346
vt -1.698732E-06 -0.2333342
vt -0.1410947 -0.2333342
vt -0.1410957 -0.2049107
vt -2.339482E-06 -0.2049107
vt 2.458692E-07 -0.2339629
vt 2.339482E-06 -0.205556
vt 0.1410957 -0.205556
vt 0.141094 -0.2339629
vt -0.08446358 -0.001526117
vt -0.07129586 0.1469733
vt 0.07186209 0.1516536
vt 0.0849669 0.003214449
vt -0.1694887 -0.07066832
vt 0.02838416 -0.0706684
vt 0.1410976 -0.08446383
vt 4.224479E-06 -0.08446388
vt -0.03178546 -0.001526117
vt -0.03178552 0.1465588
vt 0.03228912 0.1513186
vt 0.03228906 0.003218025
vt -0.1410982 -0.03115803
vt -4.820526E-06 -0.03115809
vt 0.1410977 -0.03178573
vt 4.313886E-06 -0.03178576
vt -0.5764766 0.5322999
vt -0.5832869 0.5220318
vt -0.5900974 0.5117636
vt -0.5893385 0.8905386
vt -0.5757179 0.911559
vt -0.01166181 0.532301
vt -0.005829843 0.5220329
vt -0.294783 0.4136597
vt -0.05582985 0.5425692
vt 2.161333E-06 0.2847502
vt -0.2950298 0.0577282
vt -0.590059 0.05772863
vt -0.590059 0.2847432
vt -0.5332471 0.5425692
vt -0.4900574 0.5528373
vt -0.2950276 0.5528373
vt -0.09999789 0.5528373
vt -0.01289736 0.9147783
vt -0.001233734 0.889709
vt -2.384186E-07 0.226417
vt -2.384186E-07 0.452834
vt 0.5116198 0.452834
vt 0.5116198 0.226417
vt 0.5116198 -2.980232E-08
vt -0.5116198 -2.980232E-08
vt -0.5116198 0.226417
vt -0.5116198 0.452834
vt 3.511769E-06 0.2950295
vt 3.272184E-06 0.5900592
vt 0.5116233 0.5900593
vt 0.5116232 0.2950295
vt 8.466126E-07 0.1318943
vt -0.5116199 0.1318943
vt -0.5116199 0.1159471
vt -0.5116198 0.09999988
vt -0.5116198 0.2950296
vt -0.5116198 0.4900594
vt -0.5116199 0.4638735
vt -0.5116199 0.4376877
vt 8.466126E-07 0.4376877
vt 5.425156E-07 0.4638735
vt 2.384186E-07 0.4900594
vt 2.384186E-07 0.09999988
vt 5.425156E-07 0.1159471
vt -0.5116212 0.2847469
vt -0.5116231 0.0577324
vt -0.6116213 0.2847477
vt -0.6116231 0.05773322
vt 0.6116236 -2.554347E-07
vt 0.6116237 0.2950295
vt -0.5116238 0.4358253
vt -0.5116234 0.1140863
vt -0.6116238 0.4358253
vt -0.6116235 0.1140863
vt -0.5116236 0.4268429
vt -0.5116238 0.1046557
vt -0.6116236 0.4268429
vt -0.6116238 0.1046557
vt 0.6116238 0.5900593
vt 0.5116237 0.05773256
vt 0.5116217 0.2847471
vt 0.6116237 0.0577333
vt 0.6116217 0.2847478
vt 0.09999625 0.05773025
vt 0.09999952 0.2830092
vt -0.09999532 0.2950294
vt -0.09999508 -3.044148E-07
vt -6.840417E-06 0.1037957
vt -8.111475E-06 0.4206609
vt 0.09999339 0.1037956
vt 0.09999189 0.4206609
vt -7.69589E-06 0.1358497
vt -8.479873E-06 0.4512
vt 0.09999231 0.1358496
vt 0.09999175 0.4511999
vt 2.536474E-06 0.2885028
vt -0.09999769 0.2885009
vt -0.09999673 0.05773034
vt -0.09999563 0.5900592

vn 0 0.7917054 0.610903
vn 0 0.004006603 0.999992
vn 0 -0.00400149 -0.999992
vn 0 0.6812131 -0.7320852
vn 0 0.005677447 -0.9999839
vn 0 -0.005608084 0.9999843
vn 0 8.19429E-07 1
vn 0 0 -1
vn -1 1.666434E-07 2.316605E-06
vn 1 -1.280353E-07 1.601166E-06
vn -3.34159E-06 0.986434 0.1641582
vn 0 -1 0
vn -0.9999048 -0.005380856 -0.008137453
vn -0.9998096 -0.01076202 -0.01627529
vn 0.9998096 -0.01076293 -0.01627653
vn 0.9999048 -0.00538162 -0.008138458
vn 8.289125E-09 0.9999995 -0.0009508416
vn -0.9996287 -0.004047364 0.0188423
vn -0.9999673 -0.008094729 1.005623E-05
vn -0.9992901 0 0.03767455
vn 0.9996345 -0.0009171687 0.01908748
vn 0.999269 -0.001834337 0.03818502
vn 1.953596E-06 0.9630878 -0.2691875
vn 0 1 0
vn -1.713881E-06 0.9857203 -0.1683908
vn -9.023685E-06 0.4625549 0.8865906
vn -0.9996701 -0.001078952 -0.01812349
vn -0.9993404 -0.002157904 -0.03625266
vn 0.9993401 -0.002157609 -0.03625881
vn 0.99967 -0.001078804 -0.01813225
vn -2.735344E-06 0.9632095 0.2687517
vn -0.9999157 -0.004061429 0.0082328
vn -0.9998645 1.607642E-07 0.0164656
vn 0.9998644 -1.40475E-07 0.01646645
vn 0.9999157 -0.00406194 0.008233223
vn 0.999967 -0.008123739 0
vn 9.030879E-06 0.4611976 -0.8872975
vn 0 0.9933118 -0.115463
vn 0 0.9966559 -0.05773138
vn 0 0.9976695 0.03934759
vn 0 0.9930086 0.1180426
vn 0 0.995339 0.07869517
vn -9.316648E-05 0.9769204 -0.2136037
vn -0.0001164666 0.9769942 0.2132659
vn -0.0003040932 0.9811216 -0.1933916
vn -0.0002899899 0.9828744 0.1842765

usemtl Black
f 3/34/9 7/33/9 25/32/9
f 6/31/9 3/34/9 25/32/9
f 6/31/9 2/35/9 3/34/9
f 12/50/9 38/45/9 16/46/9
f 38/45/9 12/50/9 13/17/9
f 12/50/9 9/49/9 13/17/9
f 1/132/10 8/129/10 4/133/10
f 1/132/10 73/130/10 8/129/10
f 5/131/10 73/130/10 1/132/10
f 74/135/10 14/17/10 10/147/10
f 15/134/10 74/135/10 10/147/10
f 11/146/10 15/134/10 10/147/10
f 90/152/7 30/148/7 89/26/7
f 84/151/7 30/148/7 90/152/7
f 6/149/7 30/148/7 84/151/7
f 5/150/7 6/149/7 84/151/7
f 77/154/8 13/149/8 14/155/8
f 77/154/8 37/148/8 13/149/8
f 92/153/8 37/148/8 77/154/8
f 91/26/8 37/148/8 92/153/8
f 89/157/12 93/156/12 90/158/12
f 93/156/12 94/159/12 90/158/12
f 91/26/12 94/159/12 93/156/12
f 91/26/12 92/152/12 94/159/12
f 16/160/38 39/172/38 15/161/38
f 39/172/38 76/162/38 15/161/38
f 39/172/38 40/171/39 76/162/38
f 40/171/39 88/163/39 76/162/38
f 87/164/24 88/163/39 40/171/39
f 87/164/24 40/171/39 29/156/24
f 86/165/40 87/164/24 29/156/24
f 86/165/40 29/156/24 26/170/42
f 85/166/41 86/165/40 26/170/42
f 27/169/41 85/166/41 26/170/42
f 8/167/41 85/166/41 27/169/41
f 8/167/41 27/169/41 7/168/41
f 4/4/1 3/3/1 2/2/1
f 2/2/1 1/1/1 4/4/1
f 2/8/2 6/6/2 5/5/2
f 5/5/2 1/7/2 2/8/2
f 4/12/3 8/10/3 7/9/3
f 7/9/3 3/11/3 4/12/3
f 11/15/4 10/14/4 9/13/4
f 9/13/4 12/16/4 11/15/4
f 10/20/5 14/18/5 13/17/5
f 13/17/5 9/19/5 10/20/5
f 12/24/6 16/22/6 15/21/6
f 15/21/6 11/23/6 12/24/6
f 28/38/9 27/37/9 26/36/9
f 26/36/9 29/39/9 28/38/9
f 25/32/9 7/33/9 27/37/9
f 27/37/9 28/38/9 25/32/9
f 28/38/9 30/40/9 6/31/9
f 6/31/9 25/32/9 28/38/9
f 13/17/9 37/44/9 28/38/9
f 28/38/9 38/45/9 13/17/9
f 38/45/9 28/38/9 39/47/9
f 39/47/9 16/46/9 38/45/9
f 39/47/9 28/38/9 29/39/9
f 29/39/9 40/48/9 39/47/9
f 74/135/10 15/134/10 76/137/10
f 76/137/10 75/136/10 74/135/10
f 75/136/10 77/138/10 14/17/10
f 14/17/10 74/135/10 75/136/10
f 84/141/10 75/136/10 73/130/10
f 73/130/10 5/131/10 84/141/10
f 73/130/10 75/136/10 85/142/10
f 85/142/10 8/129/10 73/130/10
f 75/136/10 87/144/10 86/143/10
f 86/143/10 85/142/10 75/136/10
f 75/136/10 76/137/10 88/145/10
f 88/145/10 87/144/10 75/136/10
f 79/176/8 92/174/8 77/173/8
f 77/173/8 78/175/8 79/176/8
f 80/178/12 94/159/12 92/152/12
f 92/152/12 79/177/12 80/178/12
f 78/182/43 77/180/43 75/179/43
f 75/179/43 81/181/43 78/182/43
f 81/186/44 75/184/44 84/183/44
f 84/183/44 83/185/44 81/186/44
f 82/187/12 90/158/12 94/159/12
f 94/159/12 80/178/12 82/187/12
f 83/191/7 84/189/7 90/188/7
f 90/188/7 82/190/7 83/191/7
f 36/193/8 37/44/8 91/43/8
f 91/43/8 35/192/8 36/193/8
f 35/195/12 91/26/12 93/156/12
f 93/156/12 33/194/12 35/195/12
f 34/199/45 28/197/45 37/196/45
f 37/196/45 36/198/45 34/199/45
f 31/203/46 30/201/46 28/200/46
f 28/200/46 34/202/46 31/203/46
f 32/206/7 89/43/7 30/204/7
f 30/204/7 31/205/7 32/206/7
f 33/194/12 93/156/12 89/157/12
f 89/157/12 32/207/12 33/194/12

usemtl Clear
f 19/27/7 20/28/7 18/26/7 17/25/7
f 23/28/8 24/30/8 22/29/8 21/26/8
f 20/54/9 42/53/9 41/52/9 18/51/9
f 18/26/12 41/64/12 44/63/12 17/25/12
f 48/68/14 47/67/13 46/66/9 45/65/13
f 45/80/12 46/79/12 51/78/12 52/77/12
f 56/84/9 55/83/9 54/82/9 53/81/9
f 55/83/20 48/68/18 45/65/19 54/82/18
f 53/96/12 54/95/12 59/94/12 60/93/12
f 54/95/12 45/80/12 52/77/12 59/94/12
f 62/98/9 61/97/9 46/66/9 47/67/9
f 23/100/9 21/99/9 61/97/9 62/98/9
f 61/110/12 21/109/12 22/112/12 64/111/12
f 46/79/12 61/110/12 64/111/12 51/78/12
f 66/114/28 56/84/27 53/81/9 65/113/27
f 65/120/12 53/96/12 60/93/12 68/119/12
f 42/53/9 70/122/9 69/121/9 41/52/9
f 70/122/33 66/114/32 65/113/19 69/121/32
f 41/64/12 69/128/12 72/127/12 44/63/12
f 69/128/12 65/120/12 68/119/12 72/127/12

usemtl Clear_1
f 44/58/10 43/57/10 19/56/10 17/55/10
f 19/60/11 43/59/11 42/62/11 20/61/11
f 51/71/10 50/70/16 49/69/15 52/72/16
f 48/73/17 49/76/17 50/75/17 47/74/17
f 59/87/10 58/86/10 57/85/10 60/88/10
f 59/87/10 52/72/21 49/69/22 58/86/21
f 55/90/23 58/89/23 49/76/23 48/73/23
f 56/92/24 57/91/24 58/89/24 55/90/24
f 50/70/10 51/71/10 64/102/10 63/101/10
f 63/101/10 64/102/10 22/104/10 24/103/10
f 62/108/25 63/107/25 24/106/25 23/105/25
f 47/74/26 50/75/26 63/107/26 62/108/26
f 60/88/10 57/85/30 67/115/29 68/116/30
f 66/118/31 67/117/31 57/91/31 56/92/31
f 72/124/10 71/123/10 43/57/10 44/58/10
f 68/116/36 67/115/35 71/123/34 72/124/35
f 71/125/17 67/117/17 66/118/17 70/126/17
f 43/59/37 71/125/37 70/126/37 42/62/37

usemtl GreyMetal
f 34/38/9 33/42/9 32/41/9 31/40/9
f 33/42/9 34/38/9 36/44/9 35/43/9
f 81/136/10 80/139/10 79/43/10 78/138/10
f 83/141/10 82/140/10 80/139/10 81/136/10

