# ProBuilder 5.0.4
# https://unity3d.com/unity/features/worldbuilding/probuilder
# 15/04/2022 00:37:40

mtllib ./FlashOne.mtl
o FlashOne

g FlashOne
v -14.45739 0.9482148 13.03224
v -14.38239 0.9482148 13.16214
v -14.33035 1.724835 13.072
v -14.2324 0.9482148 13.16214
v -14.28444 1.724835 13.072
v -14.1574 0.9482148 13.03224
v -14.30739 0.9482148 13.03224
v -14.2324 0.9482148 12.90234
v -14.26149 1.724835 13.03224
v -14.30739 1.724835 13.03224
v -14.28444 1.724835 12.99248
v -14.38239 0.9482148 12.90234
v -14.33035 1.724835 12.99248
v -14.35331 1.724835 13.03224
v -14.49212 1.563422 13.03224
v -14.39976 1.563422 12.87226
v -14.49212 1.633008 13.03224
v -14.39976 1.633008 12.87226
v -14.39976 1.563422 13.19222
v -14.39976 1.633008 13.19222
v -14.21503 1.563422 12.87226
v -14.21503 1.633008 12.87226
v -14.12267 1.563422 13.03224
v -14.12267 1.633008 13.03224
v -14.21503 1.563422 13.19222
v -14.21503 1.633008 13.19222
v -14.41038 1.037008 13.21061
v -14.20441 1.037008 13.21061
v -14.41038 0.9594219 13.21061
v -14.20441 0.9594219 13.21061
v -14.51336 1.037008 13.03224
v -14.51336 0.9594219 13.03224
v -14.10143 1.037008 13.03224
v -14.10143 0.9594219 13.03224
v -14.20441 1.037008 12.85387
v -14.20441 0.9594219 12.85387
v -14.41038 1.037008 12.85387
v -14.41038 0.9594219 12.85387
v -14.45739 1.548215 13.03224
v -14.38239 1.548215 12.90234
v -14.45739 1.648215 13.03224
v -14.38239 1.648215 13.16214
v -14.38239 1.648215 12.90234
v -14.2324 1.548215 12.90234
v -14.2324 1.648215 12.90234
v -14.1574 1.548215 13.03224
v -14.1574 1.648215 13.03224
v -14.2324 1.548215 13.16214
v -14.2324 1.648215 13.16214
v -14.38239 1.548215 13.16214
v -14.38239 1.048215 12.90234
v -14.45739 1.048215 13.03224
v -14.38239 1.048215 13.16214
v -14.2324 1.048215 13.16214
v -14.1574 1.048215 13.03224
v -14.2324 1.048215 12.90234
v -14.45739 1.390936 13.03224
v -14.38239 1.390936 13.16214
v -14.2324 1.390936 13.16214
v -14.1574 1.390936 13.03224
v -14.2324 1.390936 12.90234
v -14.38239 1.390936 12.90234
v -14.45739 1.253433 13.03224
v -14.38239 1.253433 13.16214
v -14.4671 1.280823 13.03224
v -14.4671 1.363546 13.03224
v -14.38725 1.363546 13.17055
v -14.38725 1.280823 13.17055
v -14.2324 1.253433 13.16214
v -14.22754 1.363546 13.17055
v -14.22754 1.280823 13.17055
v -14.1574 1.253433 13.03224
v -14.14769 1.363546 13.03224
v -14.14769 1.280823 13.03224
v -14.2324 1.253433 12.90234
v -14.22754 1.363546 12.89393
v -14.22754 1.280823 12.89393
v -14.38239 1.253433 12.90234
v -14.38725 1.363546 12.89393
v -14.38725 1.280823 12.89393
v -14.27401 1.65934 12.97442
v -14.24063 1.65934 13.03224
v -14.27401 1.65934 13.09006
v -14.34078 1.65934 13.09006
v -14.37416 1.65934 13.03224
v -14.34078 1.65934 12.97442
v -14.15914 1.724617 13.06431
v -14.39171 1.724617 13.06431
v -14.15914 1.766337 13.06431
v -14.39171 1.766337 13.06431
v -14.39171 1.724617 13.00067
v -14.39171 1.766337 13.00067
v -14.15914 1.724617 13.00067
v -14.15914 1.766337 13.00067
v -14.09869 1.183051 13.00067
v -14.09869 1.183051 13.06431
v -14.06331 1.179908 13.00067
v -14.06331 1.179908 13.06431
v -14.10189 1.670737 13.00067
v -14.10189 1.670737 13.06431
v -14.06651 1.667594 13.00067
v -14.06651 1.667594 13.06431
v -14.10029 1.426894 13.06431
v -14.10029 1.426894 13.00067
v -14.06491 1.423751 13.00067
v -14.06491 1.423751 13.06431

vt -0.4184794 -0.2689915
vt -0.3434793 -0.1390876
vt 0.3434793 -0.1390876
vt -0.1934793 -0.1390877
vt 0.1934793 -0.1390877
vt -0.1184793 -0.2689915
vt -0.2684793 -0.2689915
vt -0.1934794 -0.3988953
vt 0.1184793 -0.2689915
vt 0.2684793 -0.2689915
vt 0.1934794 -0.3988953
vt -0.3434793 -0.3988953
vt 0.3434793 -0.3988953
vt 0.4184794 -0.2689915
vt 0.1018916 0.2061461
vt -0.08283745 0.2061461
vt 0.1018916 0.2757319
vt -0.08283745 0.2757319
vt 0.08283745 0.2061461
vt -0.1018916 0.2061461
vt 0.08283745 0.2757319
vt -0.1018916 0.2757319
vt 0.1114225 0.2061461
vt -0.07330799 0.2061461
vt 0.1114225 0.2757319
vt -0.07330799 0.2757319
vt 0.07330799 0.2061461
vt -0.1114225 0.2061461
vt 0.07330799 0.2757319
vt -0.1114225 0.2757319
vt -0.1220407 -0.3202682
vt 0.0839262 -0.3202682
vt -0.1220407 -0.397854
vt 0.0839262 -0.397854
vt -0.1125118 -0.3202682
vt 0.09345581 -0.3202682
vt -0.1125118 -0.397854
vt 0.09345581 -0.397854
vt -0.09345455 -0.3202682
vt 0.112513 -0.3202682
vt -0.09345455 -0.397854
vt 0.112513 -0.397854
vt -0.0839262 -0.3202682
vt 0.1220407 -0.3202682
vt -0.0839262 -0.397854
vt 0.1220407 -0.397854
vt -0.2314489 -0.02416176
vt -0.1627469 -0.1575034
vt -0.2693615 -0.02416176
vt -0.1847539 -0.1883763
vt 0.0381632 -0.07542538
vt -0.03053892 0.05791624
vt 0.0760757 -0.07542538
vt -0.008531964 0.08878906
vt -0.03053453 -0.05791849
vt 0.03816803 0.0754229
vt -0.008527672 -0.08879139
vt 0.07608052 0.07542277
vt -0.09405708 -0.2020824
vt 0.05594254 -0.2020824
vt -0.1114225 -0.2357853
vt 0.07330799 -0.2357853
vt -0.05594254 0.01534594
vt 0.09405708 0.01534594
vt -0.07330799 -0.01835685
vt 0.1114225 -0.01835685
vt 0.1278307 -0.1609522
vt 0.1965331 -0.02761072
vt 0.1498376 -0.1918251
vt 0.2344456 -0.02761084
vt -0.003249109 0.07197625
vt 0.06545301 -0.06136536
vt -0.0411616 0.07197625
vt 0.04344606 -0.09223819
vt 0.1965349 0.02761094
vt 0.1278329 0.1609526
vt 0.2344474 0.02761094
vt 0.1498399 0.1918254
vt 0.06544884 0.06136739
vt -0.003253715 -0.07197399
vt 0.04344198 0.09224029
vt -0.04116621 -0.07197387
vt 0.05594254 0.2020824
vt -0.09405708 0.2020824
vt 0.07330799 0.2357853
vt -0.1114225 0.2357853
vt 0.09405708 -0.01534594
vt -0.05594254 -0.01534594
vt 0.1114225 0.01835685
vt -0.07330799 0.01835685
vt -0.1627449 0.1575032
vt -0.2314474 0.02416176
vt -0.1847519 0.1883761
vt -0.2693599 0.02416188
vt 0.1529089 -0.1611314
vt 0.2264489 -0.03039563
vt 0.1825484 -0.2099114
vt 0.2835272 -0.03039563
vt -0.094057 -0.03441327
vt 0.05594262 -0.03441327
vt -0.1220407 -0.08416159
vt 0.08392628 -0.08416159
vt -0.08544893 0.04891795
vt -0.01190901 -0.08181784
vt -0.1425273 0.04891795
vt -0.04154842 -0.1305978
vt 0.226449 0.0303957
vt 0.1529091 0.1611315
vt 0.2835274 0.0303957
vt 0.1825485 0.2099115
vt -0.01190925 0.08181798
vt -0.08544918 -0.04891781
vt -0.04154866 0.130598
vt -0.1425276 -0.0489178
vt 0.09405708 0.1961887
vt -0.05594254 0.1961887
vt 0.1220407 0.245937
vt -0.0839262 0.245937
vt 0.05594254 0.03441323
vt -0.09405708 0.03441323
vt 0.0839262 0.08416154
vt -0.1220407 0.08416154
vt -0.1155363 0.1619744
vt -0.1890762 0.03123857
vt -0.1451757 0.2107543
vt -0.2461546 0.03123857
vt 0.04807607 -0.04807523
vt -0.02546385 0.08266056
vt 0.1051544 -0.04807523
vt 0.004175573 0.1314405
vt -0.1890764 -0.03123865
vt -0.1155365 -0.1619744
vt -0.2461548 -0.03123865
vt -0.1451759 -0.2107544
vt -0.02546361 -0.08266079
vt 0.04807631 0.04807499
vt 0.004175808 -0.1314408
vt 0.1051547 0.04807499
vt -0.05594254 -0.1961887
vt 0.09405708 -0.1961887
vt -0.0839262 -0.245937
vt 0.1220407 -0.245937
vt -0.4421932 0.3991074
vt -0.4421932 0.6491074
vt -0.2921931 0.6491074
vt -0.2921931 0.3991074
vt -0.3434793 0.3991074
vt -0.3434793 0.6491074
vt -0.1934793 0.6491074
vt -0.1934793 0.3991074
vt 0.0237138 0.3991074
vt 0.0237138 0.6491074
vt 0.1737138 0.6491074
vt 0.1737138 0.3991074
vt 0.2921931 0.3991074
vt 0.2921931 0.6491074
vt 0.4421932 0.6491074
vt 0.4421932 0.3991074
vt 0.1934794 0.3991074
vt 0.1934794 0.6491074
vt 0.3434793 0.6491074
vt 0.3434793 0.3991074
vt -0.1737138 0.3991074
vt -0.1737138 0.6491074
vt -0.02371374 0.6491074
vt -0.02371374 0.3991074
vt -0.2921931 0.1491074
vt -0.4421932 0.1491074
vt -0.4421932 0.2741074
vt -0.2921931 0.2741074
vt -0.1934793 0.1491074
vt -0.3434793 0.1491074
vt -0.3434793 0.2741074
vt -0.1934793 0.2741074
vt 0.0237138 0.1491074
vt 0.0237138 0.2741074
vt 0.1737138 0.2741074
vt 0.1737138 0.1491074
vt 0.2921931 0.1491074
vt 0.2921931 0.2741074
vt 0.4421932 0.2741074
vt 0.4421932 0.1491074
vt 0.1934794 0.1491074
vt 0.1934794 0.2741074
vt 0.3434793 0.2741074
vt 0.3434793 0.1491074
vt -0.02371374 0.1491074
vt -0.1737138 0.1491074
vt -0.1737138 0.2741074
vt -0.02371374 0.2741074
vt 0.08452884 -0.06600206
vt -0.06547105 -0.06600206
vt 0.08938259 -0.03735027
vt -0.07032477 -0.03735011
vt -0.05594254 -0.005935417
vt 0.09405708 -0.005935417
vt -0.06079578 -0.03458729
vt 0.09891033 -0.03458729
vt 0.09405708 -0.06115825
vt -0.05594254 -0.06115825
vt 0.09891033 -0.03250639
vt -0.06079578 -0.03250639
vt 0.06547105 -0.0659995
vt -0.08452884 -0.0659995
vt 0.07032477 -0.03734756
vt -0.08938259 -0.03734772
vt -0.06547105 -0.001093992
vt 0.08452884 -0.001093992
vt -0.07032477 -0.02974594
vt 0.08938259 -0.02974578
vt -0.09405708 -0.005935417
vt 0.05594254 -0.005935417
vt -0.09891033 -0.03458729
vt 0.06079578 -0.03458729
vt -0.08452884 -0.001091814
vt 0.06547105 -0.001091814
vt -0.08938259 -0.0297436
vt 0.07032477 -0.02974376
vt 0.05594254 -0.06115825
vt -0.09405708 -0.06115825
vt 0.06079578 -0.03250639
vt -0.09891033 -0.03250639
vt -0.0845283 -0.01077908
vt 0.0654716 -0.01077908
vt -0.08938202 -0.03943103
vt 0.07032535 -0.03943086
vt 0.0654716 -0.05631755
vt -0.0845283 -0.05631755
vt 0.07032535 -0.02766577
vt -0.08938202 -0.0276656
vt -0.0654716 -0.01077632
vt 0.0845283 -0.01077632
vt -0.07032535 -0.0394281
vt 0.08938202 -0.03942827
vt 0.0845283 -0.05631441
vt -0.0654716 -0.05631441
vt 0.08938202 -0.02766247
vt -0.07032535 -0.02766263
vt -0.01690375 -0.1069663
vt -0.09124242 0.02331697
vt 0.02582077 -0.03467225
vt -0.007267373 0.02331697
vt -0.09124245 -0.02331695
vt -0.01690379 0.1069663
vt -0.007267408 -0.02331695
vt 0.02582073 0.03467228
vt -0.05594254 0.08400466
vt 0.09405708 0.08400466
vt -0.01432514 0.01106766
vt 0.05243969 0.01106766
vt 0.1290205 0.02370236
vt 0.05468189 -0.1065809
vt 0.04504644 0.02370236
vt 0.01195736 -0.03428688
vt 0.09405708 -0.08400466
vt -0.05594254 -0.08400466
vt 0.05243969 -0.01106766
vt -0.01432514 -0.01106766
vt 0.05468231 0.1065812
vt 0.129021 -0.02370211
vt 0.01195779 0.03428712
vt 0.04504688 -0.02370211
vt 0.04291138 0.2802123
vt -0.02385369 0.2802123
vt 0.03248407 0.3481514
vt -0.01342626 0.3481514
vt 0.02385369 0.280212
vt -0.04291138 0.280212
vt 0.01342626 0.3481512
vt -0.03248407 0.3481511
vt 0.01432514 0.275825
vt -0.05243969 0.275825
vt 0.003897667 0.3437641
vt -0.04201221 0.3437641
vt 0.04291229 0.2714373
vt -0.02385326 0.2714373
vt 0.03248463 0.3393764
vt -0.01342617 0.3393764
vt 0.05243969 0.275825
vt -0.01432514 0.275825
vt 0.04201221 0.3437641
vt -0.003897667 0.3437641
vt 0.02385326 0.2714371
vt -0.04291229 0.2714371
vt 0.01342617 0.3393762
vt -0.03248463 0.3393762
vt 0.3071369 -0.4229219
vt 0.007136911 -0.4229219
vt 0.3071369 -0.1229217
vt 0.007136911 -0.1229217
vt 0.3455681 -0.4229219
vt 0.04556808 -0.4229219
vt 0.3455681 -0.1229217
vt 0.04556808 -0.1229217
vt -0.007136911 -0.4229219
vt -0.3071369 -0.4229219
vt -0.007136911 -0.1229217
vt -0.3071369 -0.1229217
vt 2.075078 0.04556862
vt 2.075078 0.3455692
vt 2.126002 0.04556862
vt 2.126002 0.3455692
vt -0.3071369 0.3455681
vt -0.007136911 0.3455681
vt -0.3071369 0.04556808
vt -0.007136911 0.04556808
vt 0.3071369 0.04556808
vt 0.007136911 0.04556808
vt 0.3071369 0.3455681
vt 0.007136911 0.3455681
vt 0.1789964 -0.06036732
vt 0.4789976 -0.06036732
vt 0.1789964 -0.4547939
vt 0.4789976 -0.4547939
vt -0.4266277 -0.8329732
vt -0.3809952 -0.8103716
vt 0.3810002 -0.8103716
vt 0.4266328 -0.8329732
vt -0.3455692 0.08281267
vt -0.04556808 0.08281267
vt -0.3455692 -0.6372228
vt -0.04556808 -0.6372228
vt 0.04556862 -0.8099327
vt 0.3455692 -0.8099327
vt 0.3455692 -2.563385
vt 0.04556862 -2.563385
vt 0.3455692 -4.316837
vt 0.04556862 -4.316837
vt -0.4307241 -0.8331978
vt -0.3760675 -0.8103056
vt -0.3691049 -2.563466
vt -0.4237614 -2.586359
vt -0.3781295 -2.563756
vt -0.3711683 -4.316917
vt -0.4258234 -4.33981
vt -0.4327846 -2.586649
vt 0.05055547 -0.7772999
vt 0.6571157 -1.035807
vt 0.09824967 -2.553353
vt -0.508311 -2.294846
vt 0.6591702 -2.789253
vt 0.1003196 -4.306805
vt -0.5062249 -4.048304
vt 0.05262566 -2.530752
vt -0.3455692 -0.8325887
vt -0.04556862 -0.8325887
vt -0.04556862 -2.586041
vt -0.3455692 -2.586041
vt -0.04556862 -4.339493
vt -0.3455692 -4.339493

vn 0 -1 0
vn 0 1 0
vn -0.8660291 0 -0.4999936
vn -0.8660291 0 0.4999936
vn 0 0 -1
vn 0.8660291 0 -0.4999936
vn 0.8660291 0 0.4999936
vn 0 0 1
vn -0.3907701 -0.8924116 -0.2256107
vn -0.3907677 0.8924131 0.2256093
vn -0.3907554 0.8924202 -0.2256022
vn 0 -0.8924162 -0.4512131
vn 0 0.8924176 -0.4512102
vn 0.3907579 -0.8924188 -0.2256037
vn 0.3907677 0.8924131 -0.2256093
vn 0.3907701 -0.8924116 0.2256107
vn 0.3907554 0.8924202 0.2256022
vn 0 -0.8924162 0.4512131
vn 0 0.8924176 0.4512102
vn -0.3907579 -0.8924188 0.2256037
vn -0.1950958 0.9742947 -0.1126383
vn 0 -0.974295 -0.225276
vn -0.1950963 -0.9742946 -0.1126386
vn -0.1950963 0.9742946 0.1126386
vn -0.1950958 -0.9742947 0.1126383
vn 0 0.974295 0.225276
vn 0 -0.974295 0.225276
vn 0.1950958 0.9742947 0.1126383
vn 0.1950963 -0.9742946 0.1126386
vn 0.1950963 0.9742946 -0.1126386
vn 0.1950958 -0.9742947 -0.1126383
vn 0 0.974295 -0.225276
vn -1 0 0
vn -0.5000005 0 0.8660251
vn 0.5000005 0 0.8660251
vn 1 0 0
vn 0.5000005 0 -0.8660251
vn -0.5000005 0 -0.8660251
vn -0.4999989 0 0.866026
vn 0.4999989 0 0.866026
vn 0.4999989 0 -0.866026
vn -0.4999989 0 -0.866026
vn 0.8279127 -0.2933971 -0.4779944
vn 0 0.2934063 -0.9559879
vn 0 -0.2934063 -0.9559879
vn 0.827908 -0.2934148 0.4779918
vn 0.827908 0.2934148 -0.4779918
vn 0 0.2934063 0.9559879
vn 0.8279127 0.2933971 0.4779944
vn 0 -0.2934063 0.9559879
vn -0.827908 0.2934148 0.4779918
vn -0.8279127 -0.2933971 0.4779944
vn -0.8279127 0.2933971 -0.4779944
vn -0.827908 -0.2934148 -0.4779918
vn 0.1321008 0.9882978 -0.07626825
vn 0.1321007 0.9882978 0.07626817
vn 0 0.9882978 0.1525366
vn -0.1321022 0.9882976 -0.07626903
vn 0 0.9882978 -0.1525366
vn -0.1321008 0.9882978 0.07626825
vn 0.834865 0.2658376 -0.4820072
vn 0.8348644 0.2658398 0.4820069
vn 0 0.2658363 0.9640182
vn -0.8348589 0.2658381 -0.4820174
vn 0 0.2658363 -0.9640182
vn -0.8348585 0.2658394 0.4820172
vn -0.08849998 -0.9960762 0
vn -0.6853101 -0.7282513 0
vn 0.7293137 0.6841795 0
vn -0.9999785 -0.006550815 0
vn 0.9999785 0.006550815 0

usemtl Black
f 11/11/2 10/10/2 9/9/2
f 9/9/2 10/10/2 5/5/2
f 5/5/2 10/10/2 3/3/2
f 14/14/2 10/10/2 13/13/2
f 13/13/2 10/10/2 11/11/2
f 3/3/2 10/10/2 14/14/2
f 6/6/1 7/7/1 8/8/1
f 4/4/1 7/7/1 6/6/1
f 2/2/1 7/7/1 4/4/1
f 1/1/1 7/7/1 2/2/1
f 12/12/1 7/7/1 1/1/1
f 8/8/1 7/7/1 12/12/1
f 18/18/3 16/16/3 15/15/3
f 15/15/3 17/17/3 18/18/3
f 17/22/4 15/20/4 19/19/4
f 19/19/4 20/21/4 17/22/4
f 22/26/5 21/24/5 16/23/5
f 16/23/5 18/25/5 22/26/5
f 24/18/6 23/16/6 21/15/6
f 21/15/6 22/17/6 24/18/6
f 26/22/7 25/20/7 23/19/7
f 23/19/7 24/21/7 26/22/7
f 20/30/8 19/28/8 25/27/8
f 25/27/8 26/29/8 20/30/8
f 30/34/8 28/32/8 27/31/8
f 27/31/8 29/33/8 30/34/8
f 29/38/4 27/36/4 31/35/4
f 31/35/4 32/37/4 29/38/4
f 34/38/7 33/36/7 28/35/7
f 28/35/7 30/37/7 34/38/7
f 36/42/6 35/40/6 33/39/6
f 33/39/6 34/41/6 36/42/6
f 38/46/5 37/44/5 35/43/5
f 35/43/5 36/45/5 38/46/5
f 32/42/3 31/40/3 37/39/3
f 37/39/3 38/41/3 32/42/3
f 16/50/9 40/48/9 39/47/9
f 39/47/9 15/49/9 16/50/9
f 20/54/10 42/52/10 41/51/10
f 41/51/10 17/53/10 20/54/10
f 17/58/11 41/56/11 43/55/11
f 43/55/11 18/57/11 17/58/11
f 21/62/12 44/60/12 40/59/12
f 40/59/12 16/61/12 21/62/12
f 18/66/13 43/64/13 45/63/13
f 45/63/13 22/65/13 18/66/13
f 23/70/14 46/68/14 44/67/14
f 44/67/14 21/69/14 23/70/14
f 22/74/15 45/72/15 47/71/15
f 47/71/15 24/73/15 22/74/15
f 25/78/16 48/76/16 46/75/16
f 46/75/16 23/77/16 25/78/16
f 24/82/17 47/80/17 49/79/17
f 49/79/17 26/81/17 24/82/17
f 19/86/18 50/84/18 48/83/18
f 48/83/18 25/85/18 19/86/18
f 26/90/19 49/88/19 42/87/19
f 42/87/19 20/89/19 26/90/19
f 15/94/20 39/92/20 50/91/20
f 50/91/20 19/93/20 15/94/20
f 31/98/21 52/96/21 51/95/21
f 51/95/21 37/97/21 31/98/21
f 36/102/22 8/100/22 12/99/22
f 12/99/22 38/101/22 36/102/22
f 38/106/23 12/104/23 1/103/23
f 1/103/23 32/105/23 38/106/23
f 27/110/24 53/108/24 52/107/24
f 52/107/24 31/109/24 27/110/24
f 32/114/25 1/112/25 2/111/25
f 2/111/25 29/113/25 32/114/25
f 28/118/26 54/116/26 53/115/26
f 53/115/26 27/117/26 28/118/26
f 29/122/27 2/120/27 4/119/27
f 4/119/27 30/121/27 29/122/27
f 33/126/28 55/124/28 54/123/28
f 54/123/28 28/125/28 33/126/28
f 30/130/29 4/128/29 6/127/29
f 6/127/29 34/129/29 30/130/29
f 35/134/30 56/132/30 55/131/30
f 55/131/30 33/133/30 35/134/30
f 34/138/31 6/136/31 8/135/31
f 8/135/31 36/137/31 34/138/31
f 37/142/32 51/140/32 56/139/32
f 56/139/32 35/141/32 37/142/32
f 39/144/33 57/143/33 58/146/34
f 58/146/34 50/145/34 39/144/33
f 50/148/34 58/147/34 59/150/35
f 59/150/35 48/149/35 50/148/34
f 46/153/36 48/152/35 59/151/35
f 59/151/35 60/154/36 46/153/36
f 44/157/37 46/156/36 60/155/36
f 60/155/36 61/158/37 44/157/37
f 40/161/38 44/160/37 61/159/37
f 61/159/37 62/162/38 40/161/38
f 40/164/38 62/163/38 57/166/33
f 57/166/33 39/165/33 40/164/38
f 63/169/33 52/168/33 53/167/34
f 53/167/34 64/170/34 63/169/33
f 64/173/34 53/172/34 54/171/35
f 54/171/35 69/174/35 64/173/34
f 72/177/36 69/176/35 54/175/35
f 54/175/35 55/178/36 72/177/36
f 75/181/37 72/180/36 55/179/36
f 55/179/36 56/182/37 75/181/37
f 78/185/38 75/184/37 56/183/37
f 56/183/37 51/186/38 78/185/38
f 78/189/38 51/188/38 52/187/33
f 52/187/33 63/190/33 78/189/38
f 74/194/43 72/192/43 75/191/43
f 75/191/43 77/193/43 74/194/43
f 79/198/44 62/196/44 61/195/44
f 61/195/44 76/197/44 79/198/44
f 77/202/45 75/200/45 78/199/45
f 78/199/45 80/201/45 77/202/45
f 71/206/46 69/204/46 72/203/46
f 72/203/46 74/205/46 71/206/46
f 76/210/47 61/208/47 60/207/47
f 60/207/47 73/209/47 76/210/47
f 70/214/48 59/212/48 58/211/48
f 58/211/48 67/213/48 70/214/48
f 73/218/49 60/216/49 59/215/49
f 59/215/49 70/217/49 73/218/49
f 68/222/50 64/220/50 69/219/50
f 69/219/50 71/221/50 68/222/50
f 67/226/51 58/224/51 57/223/51
f 57/223/51 66/225/51 67/226/51
f 65/230/52 63/228/52 64/227/52
f 64/227/52 68/229/52 65/230/52
f 66/234/53 57/232/53 62/231/53
f 62/231/53 79/233/53 66/234/53
f 80/238/54 78/236/54 63/235/54
f 63/235/54 65/237/54 80/238/54
f 82/242/55 47/240/55 45/239/55
f 45/239/55 81/241/55 82/242/55
f 83/246/56 49/244/56 47/243/56
f 47/243/56 82/245/56 83/246/56
f 84/250/57 42/248/57 49/247/57
f 49/247/57 83/249/57 84/250/57
f 86/254/58 43/252/58 41/251/58
f 41/251/58 85/253/58 86/254/58
f 81/258/59 45/256/59 43/255/59
f 43/255/59 86/257/59 81/258/59
f 85/262/60 41/260/60 42/259/60
f 42/259/60 84/261/60 85/262/60
f 9/266/61 82/264/61 81/263/61
f 81/263/61 11/265/61 9/266/61
f 5/270/62 83/268/62 82/267/62
f 82/267/62 9/269/62 5/270/62
f 3/274/63 84/272/63 83/271/63
f 83/271/63 5/273/63 3/274/63
f 13/278/64 86/276/64 85/275/64
f 85/275/64 14/277/64 13/278/64
f 11/282/65 81/280/65 86/279/65
f 86/279/65 13/281/65 11/282/65
f 14/286/66 85/284/66 84/283/66
f 84/283/66 3/285/66 14/286/66

usemtl BlueGlow
f 67/146/39 66/143/33 65/169/33 68/170/39
f 70/150/40 67/147/39 68/173/39 71/174/40
f 74/177/36 73/154/36 70/151/40 71/176/40
f 77/181/41 76/158/41 73/155/36 74/180/36
f 80/185/42 79/162/42 76/159/41 77/184/41
f 66/166/33 79/163/42 80/189/42 65/190/33
f 103/325/70 104/326/70 95/328/70 96/327/70
f 105/336/5 97/335/5 95/334/5 104/333/5
f 106/341/8 103/344/8 96/343/8 98/342/8
f 98/350/71 97/349/71 105/347/71 106/348/71

usemtl GreyMetal
f 89/289/8 90/290/8 88/288/8 87/287/8
f 90/293/33 92/294/33 91/292/33 88/291/33
f 92/297/5 94/298/5 93/296/5 91/295/5
f 97/301/67 98/302/67 96/300/67 95/299/67
f 94/305/2 92/306/2 90/304/2 89/303/2
f 87/309/1 88/310/1 91/308/1 93/307/1
f 99/313/68 100/314/68 87/312/68 93/311/68
f 101/315/5 99/316/5 93/296/5 94/298/5
f 100/317/8 102/318/8 89/289/8 87/287/8
f 102/321/69 101/322/69 94/320/69 89/319/69
f 100/324/70 99/323/70 104/326/70 103/325/70
f 101/329/5 105/332/5 104/331/5 99/330/5
f 102/338/8 100/337/8 103/340/8 106/339/8
f 106/348/71 105/347/71 101/346/71 102/345/71

