# ProBuilder 5.0.4
# https://unity3d.com/unity/features/worldbuilding/probuilder
# 15/04/2022 00:31:37

mtllib ./Smoke.mtl
o Smoke

g Smoke
v -12.48 1.253 -25.669
v -12.48 1.753 -25.669
v -12.405 1.253 -25.5391
v -12.405 1.753 -25.5391
v -12.255 1.253 -25.5391
v -12.255 1.753 -25.5391
v -12.18 1.253 -25.669
v -12.18 1.753 -25.669
v -12.255 1.253 -25.7989
v -12.255 1.753 -25.7989
v -12.405 1.253 -25.7989
v -12.405 1.753 -25.7989
v -12.48 1.153 -25.669
v -12.405 1.153 -25.5391
v -12.36644 1.921979 -25.60588
v -12.255 1.153 -25.5391
v -12.29356 1.921979 -25.60588
v -12.18 1.153 -25.669
v -12.33 1.153 -25.669
v -12.255 1.153 -25.7989
v -12.25712 1.921979 -25.669
v -12.33 1.921979 -25.669
v -12.29356 1.921979 -25.73212
v -12.405 1.153 -25.7989
v -12.36644 1.921979 -25.73212
v -12.40288 1.921979 -25.669
v -12.50309 1.753 -25.669
v -12.41655 1.753 -25.8189
v -12.50309 1.853 -25.669
v -12.41655 1.853 -25.8189
v -12.41655 1.753 -25.5191
v -12.41655 1.853 -25.5191
v -12.24345 1.753 -25.8189
v -12.24345 1.853 -25.8189
v -12.15691 1.753 -25.669
v -12.15691 1.853 -25.669
v -12.24345 1.753 -25.5191
v -12.24345 1.853 -25.5191
v -12.41655 1.253 -25.5191
v -12.24345 1.253 -25.5191
v -12.41655 1.153 -25.5191
v -12.24345 1.153 -25.5191
v -12.50309 1.253 -25.669
v -12.50309 1.153 -25.669
v -12.15691 1.253 -25.669
v -12.15691 1.153 -25.669
v -12.24345 1.253 -25.8189
v -12.24345 1.153 -25.8189
v -12.41655 1.253 -25.8189
v -12.41655 1.153 -25.8189
v -12.37205 1.921979 -25.59617
v -12.4141 1.921979 -25.669
v -12.37205 1.921979 -25.74183
v -12.28795 1.921979 -25.74183
v -12.28795 1.921979 -25.59617
v -12.2459 1.921979 -25.669
v -12.2459 1.853 -25.669
v -12.28795 1.853 -25.59617
v -12.28795 1.853 -25.74183
v -12.37205 1.853 -25.74183
v -12.4141 1.853 -25.669
v -12.37205 1.853 -25.59617
v -12.18175 1.922033 -25.63693
v -12.41432 1.922033 -25.63693
v -12.18175 1.963752 -25.63693
v -12.41432 1.963752 -25.63693
v -12.41432 1.922033 -25.70057
v -12.41432 1.963752 -25.70057
v -12.18175 1.922033 -25.70057
v -12.18175 1.963752 -25.70057
v -12.12129 1.380466 -25.70057
v -12.12129 1.380466 -25.63693
v -12.08592 1.377323 -25.70057
v -12.08592 1.377323 -25.63693
v -12.12449 1.868152 -25.70057
v -12.12449 1.868152 -25.63693
v -12.08912 1.865009 -25.70057
v -12.08912 1.865009 -25.63693
v -12.12289 1.624309 -25.63693
v -12.12289 1.624309 -25.70057
v -12.08752 1.621166 -25.70057
v -12.08752 1.621166 -25.63693
v -12.38737 1.827252 -25.43741
v -12.40114 1.852195 -25.47168
v -12.38737 1.836156 -25.43093
v -12.40114 1.861098 -25.4652
v -12.39393 1.852195 -25.47168
v -12.38154 1.829747 -25.44083
v -12.39393 1.861098 -25.4652
v -12.38154 1.83865 -25.43436
v -12.35131 1.811837 -25.41623
v -12.35131 1.820741 -25.40974
v -12.34908 1.815873 -25.42177
v -12.34908 1.824777 -25.41529
v -12.30674 1.811837 -25.41623
v -12.30674 1.820741 -25.40974
v -12.30897 1.815873 -25.42177
v -12.30897 1.824777 -25.41529
v -12.27068 1.827252 -25.43741
v -12.27068 1.836156 -25.43093
v -12.27652 1.829747 -25.44083
v -12.27652 1.83865 -25.43436
v -12.25691 1.852195 -25.47168
v -12.25691 1.861098 -25.4652
v -12.26412 1.852195 -25.47168
v -12.26412 1.861098 -25.4652
v -12.27068 1.877137 -25.50596
v -12.27068 1.886041 -25.49948
v -12.27652 1.874643 -25.50253
v -12.27652 1.883546 -25.49605
v -12.30674 1.892552 -25.52714
v -12.30674 1.901456 -25.52066
v -12.30897 1.888517 -25.5216
v -12.30897 1.89742 -25.51512
v -12.35131 1.892552 -25.52714
v -12.35131 1.901456 -25.52066
v -12.34908 1.888517 -25.5216
v -12.34908 1.89742 -25.51512
v -12.38737 1.877137 -25.50596
v -12.38737 1.886041 -25.49948
v -12.38154 1.874643 -25.50253
v -12.38154 1.883546 -25.49605
v -12.34614 1.892916 -25.7796
v -12.34614 1.892916 -25.51326
v -12.34319 1.883817 -25.7796
v -12.34319 1.883817 -25.51326
v -12.33545 1.878194 -25.7796
v -12.33545 1.878194 -25.51326
v -12.32588 1.878194 -25.7796
v -12.32588 1.878194 -25.51326
v -12.31814 1.883817 -25.7796
v -12.31814 1.883817 -25.51326
v -12.31518 1.892916 -25.7796
v -12.31518 1.892916 -25.51326
v -12.31814 1.902015 -25.7796
v -12.31814 1.902015 -25.51326
v -12.32588 1.907638 -25.7796
v -12.32588 1.907638 -25.51326
v -12.33545 1.907638 -25.7796
v -12.33545 1.907638 -25.51326
v -12.34319 1.902015 -25.7796
v -12.34319 1.902015 -25.51326
v -12.33066 1.892916 -25.7796
v -12.33066 1.892916 -25.51326

vt -0.4421932 0.1491074
vt -0.4421932 0.6491074
vt -0.2921931 0.1491074
vt -0.2921931 0.6491074
vt -0.3434793 0.1491074
vt -0.3434793 0.6491074
vt -0.1934793 0.1491074
vt -0.1934793 0.6491074
vt 0.0237138 0.1491074
vt 0.0237138 0.6491074
vt 0.1737138 0.1491074
vt 0.1737138 0.6491074
vt 0.2921931 0.1491074
vt 0.2921931 0.6491074
vt 0.4421932 0.1491074
vt 0.4421932 0.6491074
vt 0.1934794 0.1491074
vt 0.1934794 0.6491074
vt 0.3434793 0.1491074
vt 0.3434793 0.6491074
vt -0.1737138 0.1491074
vt -0.1737138 0.6491074
vt -0.02371374 0.1491074
vt -0.02371374 0.6491074
vt -0.4184794 -0.2689915
vt -0.3434793 -0.1390876
vt 0.3434793 -0.1390876
vt -0.1934793 -0.1390877
vt 0.1934793 -0.1390877
vt -0.1184793 -0.2689915
vt -0.2684793 -0.2689915
vt -0.1934794 -0.3988953
vt 0.1184793 -0.2689915
vt 0.2684793 -0.2689915
vt 0.1934794 -0.3988953
vt -0.3434793 -0.3988953
vt 0.3434793 -0.3988953
vt 0.4184794 -0.2689915
vt 0.08654665 0.25
vt -0.08654723 0.25
vt 0.08654665 0.35
vt -0.08654723 0.35
vt -0.08654683 -0.25
vt 0.08654683 -0.25
vt -0.08654683 -0.35
vt 0.08654683 -0.35
vt 0.08654665 -0.35
vt -0.08654665 -0.35
vt -0.07499981 0.1299038
vt -0.1499996 0
vt -0.08654683 0.1499038
vt -0.1730936 0
vt 0.08654683 0.1499038
vt -0.07499981 -0.1299038
vt -0.08654683 -0.1499038
vt 0.1730936 0
vt 0.07499981 -0.1299038
vt 0.08654683 -0.1499038
vt 0.1499996 0
vt 0.07499981 0.1299038
vt -0.0840987 -6.766934E-08
vt -0.04204929 0.07283204
vt -0.04204929 -0.07283204
vt 0.04205036 -0.07283197
vt 0.08409965 6.767006E-08
vt 0.04205025 0.07283204
vt 0.04204924 0.35
vt -0.04204993 0.35
vt 0.04204924 0.4189788
vt -0.04204993 0.4189788
vt 0.3317198 0.001779795
vt 0.03171978 0.001779795
vt 0.3317198 0.30178
vt 0.03171978 0.30178
vt 0.3455681 0.001779795
vt 0.04556808 0.001779795
vt 0.3455681 0.30178
vt 0.04556808 0.30178
vt -0.03171978 0.001779795
vt -0.3317198 0.001779795
vt -0.03171978 0.30178
vt -0.3317198 0.30178
vt 2.094802 0.04556862
vt 2.094802 0.3455692
vt 2.145725 0.04556862
vt 2.145725 0.3455692
vt -0.3317198 0.3455681
vt -0.03171978 0.3455681
vt -0.3317198 0.04556808
vt -0.03171978 0.04556808
vt 0.3317198 0.04556808
vt 0.03171978 0.04556808
vt 0.3317198 0.3455681
vt 0.03171978 0.3455681
vt 0.04556811 -0.06036755
vt 0.3455693 -0.06036755
vt 0.04556805 -0.4547941
vt 0.3455693 -0.4547941
vt -0.4512106 -0.4082711
vt -0.405578 -0.3856695
vt 0.4055831 -0.3856695
vt 0.4512157 -0.4082711
vt -0.3455692 0.2425463
vt -0.04556808 0.2425463
vt -0.3455692 -0.4774891
vt -0.04556808 -0.4774891
vt 0.04556862 -0.3861468
vt 0.3455692 -0.3861468
vt 0.3455692 -2.1396
vt 0.04556862 -2.1396
vt 0.3455692 -3.893052
vt 0.04556862 -3.893052
vt -0.4602342 -0.4085629
vt -0.398615 -2.138831
vt -0.4532715 -2.161724
vt -0.4076388 -2.139122
vt -0.4006776 -3.892282
vt -0.4553327 -3.915175
vt -0.4622939 -2.162014
vt 1.012138 -0.6441767
vt 0.4532716 -2.161723
vt -0.1532886 -1.903216
vt 1.014184 -2.397623
vt 0.4553328 -3.915175
vt -0.1512117 -3.656674
vt 0.4076385 -2.139122
vt -0.3455692 -0.4088013
vt -0.04556862 -0.4088013
vt -0.04556862 -2.162254
vt -0.3455692 -2.162254
vt -0.04556862 -3.915707
vt -0.3455692 -3.915707
vt 0.4777114 0.2149267
vt -0.07225895 0.2866817
vt 0.4599833 0.3641458
vt -0.08998716 0.4359007
vt 0.05363655 0.2821002
vt -0.4601946 0.2134995
vt 0.07246935 0.4373279
vt -0.441366 0.3687215
vt 0.1362671 0.1706805
vt -0.3527777 0.298842
vt 0.1046028 0.3519855
vt -0.3844386 0.4801388
vt 0.3344228 0.2920566
vt -0.1197029 0.1702018
vt 0.3678743 0.480617
vt -0.08625484 0.3587546
vt -0.2401318 0.1253157
vt -0.5492868 0.1254225
vt -0.2399936 0.5254393
vt -0.5491487 0.5255461
vt 0.5336978 0.1254206
vt 0.2555826 0.1254206
vt 0.5336978 0.5254068
vt 0.2555826 0.5254068
vt -0.2857635 0.2988424
vt -0.7748039 0.1706882
vt -0.2541026 0.4801388
vt -0.743144 0.351985
vt 0.7582411 0.1702113
vt 0.3041135 0.2920642
vt 0.724793 0.3587627
vt 0.2706654 0.4806156
vt -0.1716422 0.2866817
vt -0.7216085 0.2149329
vt -0.153914 0.4359007
vt -0.7038845 0.3641458
vt 0.7040952 0.2134995
vt 0.1902641 0.2821002
vt 0.6852626 0.3687272
vt 0.1714314 0.4373279
vt 0.07225883 0.2866821
vt -0.4777075 0.2149315
vt 0.08998668 0.4359012
vt -0.4599835 0.3641453
vt 0.4601967 0.2134995
vt -0.05363703 0.2821016
vt 0.4413681 0.3687215
vt -0.07246542 0.437324
vt 0.352778 0.2988429
vt -0.1362636 0.1706882
vt 0.3844385 0.4801393
vt -0.1046031 0.3519845
vt 0.1197006 0.1702123
vt -0.3344313 0.2920709
vt 0.08625197 0.3587637
vt -0.3678788 0.4806232
vt 0.5491487 0.1253881
vt 0.2401316 0.1253881
vt 0.5491487 0.5254049
vt 0.2401316 0.5254049
vt -0.2555825 0.1254206
vt -0.5336979 0.1254206
vt -0.2555825 0.5254068
vt -0.5336979 0.5254068
vt 0.7748036 0.1706882
vt 0.2857632 0.2988429
vt 0.7431442 0.3519845
vt 0.2541026 0.4801388
vt -0.3041132 0.2920632
vt -0.7582417 0.1702123
vt -0.2706646 0.4806147
vt -0.7247931 0.3587637
vt 0.7216125 0.2149262
vt 0.1716422 0.2866821
vt 0.7038846 0.3641453
vt 0.1539146 0.4359012
vt -0.190264 0.2821012
vt -0.7040951 0.2134986
vt -0.1714312 0.4373288
vt -0.6852624 0.3687263
vt -0.8946453 0.3320723
vt -0.7991177 0.6259649
vt -0.8446791 0.332055
vt -0.7587029 0.5965585
vt 0.7991499 0.6259578
vt 0.8946403 0.3320652
vt 0.758698 0.5965685
vt 0.8446406 0.3320653
vt -0.5491495 0.8075935
vt -0.5336978 0.7600412
vt 0.5491658 0.8075978
vt 0.5336947 0.7600681
vt -0.2401235 0.8075909
vt -0.2555921 0.7599421
vt 0.24014 0.8076977
vt 0.2555757 0.7600381
vt 0.5336883 0.7599421
vt 0.009868443 0.6259572
vt -0.2555824 0.7600421
vt -0.03058302 0.5965686
vt -0.009868443 0.625958
vt 0.03058255 0.5965686
vt 0.1053598 0.3320653
vt 0.05536017 0.3320652
vt -0.1053598 0.3320652
vt -0.05536002 0.3320652
vt 0.009837359 0.03816557
vt -0.03057739 0.06757218
vt -0.00987047 0.03817272
vt 0.03058246 0.06756192
vt -0.2401148 -0.1434674
vt -0.2555857 -0.09593713
vt 0.2401301 -0.1434629
vt 0.2555826 -0.09591126
vt -0.5491487 -0.1434628
vt -0.5336965 -0.09590989
vt 0.5491487 -0.143463
vt 0.5336965 -0.09591013
vt -0.7991488 0.03817278
vt -0.7586975 0.06756192
vt 0.7991488 0.03817242
vt 0.7586979 0.06756169
vt -0.1774837 0.1559385
vt -0.1774837 0.3559386
vt -0.1465825 0.1559385
vt -0.1465825 0.3559386
vt -0.1955621 0.1559385
vt -0.1955621 0.3559385
vt -0.1646604 0.1559385
vt -0.1646604 0.3559385
vt -0.1448438 0.1559385
vt -0.1448438 0.3559385
vt -0.1139421 0.1559385
vt -0.1139421 0.3559385
vt -0.04470176 0.1559385
vt -0.04470176 0.3559385
vt -0.0138002 0.1559385
vt -0.0138002 0.3559385
vt 0.06661285 0.1559385
vt 0.06661286 0.3559386
vt 0.09751464 0.1559385
vt 0.09751465 0.3559386
vt 0.1465824 0.1559385
vt 0.1465824 0.3559386
vt 0.1774838 0.1559385
vt 0.1774838 0.3559386
vt 0.1646602 0.1559385
vt 0.1646602 0.3559385
vt 0.1955619 0.1559385
vt 0.1955619 0.3559385
vt 0.1139421 0.1559385
vt 0.1139421 0.3559385
vt 0.1448438 0.1559385
vt 0.1448438 0.3559385
vt 0.01380002 0.1559385
vt 0.01380002 0.3559385
vt 0.04470176 0.1559385
vt 0.04470176 0.3559385
vt -0.09751467 0.1559385
vt -0.09751467 0.3559386
vt -0.06661288 0.1559385
vt -0.06661288 0.3559386
vt -0.1793929 -0.1283295
vt -0.1293929 -0.1283295
vt -0.1698439 -0.0989399
vt 0.1793929 -0.1283295
vt 0.1293929 -0.1283295
vt 0.1698439 -0.0989399
vt -0.1448438 -0.08077657
vt 0.1448438 -0.08077657
vt -0.113942 -0.08077657
vt 0.1139421 -0.08077657
vt -0.08894205 -0.09894025
vt 0.08894205 -0.09894025
vt -0.07939292 -0.1283295
vt 0.07939291 -0.1283295
vt -0.08894195 -0.1577184
vt 0.08894195 -0.1577184
vt -0.113942 -0.1758822
vt 0.113942 -0.1758822
vt -0.1448438 -0.1758822
vt 0.1448438 -0.1758822
vt -0.1698437 -0.1577185
vt 0.1698437 -0.1577185

vn -1 0 0
vn -0.5000005 0 0.8660251
vn 0.5000005 0 0.8660251
vn 1 0 0
vn 0.5000005 0 -0.8660251
vn -0.5000005 0 -0.8660251
vn -1.986826E-07 -1 0
vn 0 1 0
vn -0.8660259 0 -0.4999991
vn -0.8660259 0 0.4999991
vn 0 0 -1
vn 0.8660259 0 -0.4999991
vn 0.8660259 0 0.4999991
vn 0 0 1
vn -0.08849998 -0.9960762 0
vn -0.6853101 -0.7282513 0
vn 0.7293137 0.6841795 0
vn -0.9999785 -0.006550815 0
vn 0.9999785 0.006550815 0
vn -0.8090169 -0.3458549 0.4752642
vn 0.8090157 0.3458563 -0.4752652
vn -0.3090133 -0.5596056 0.7689944
vn 0.309014 0.5596093 -0.7689914
vn 0.3090133 -0.5596056 0.7689944
vn -0.3090136 0.5596105 -0.7689907
vn 0.8090168 -0.3458554 0.475264
vn -0.809016 0.3458568 -0.4752644
vn 0 -0.8085667 -0.5884044
vn 1.33653E-06 0.8085684 0.5884023
vn -0.8090177 -0.5877844 0
vn -0.3090172 -0.9510565 0
vn 0.3090172 -0.9510565 0
vn 0.8090177 -0.5877844 0
vn 0.8090177 0.5877844 0
vn 0.3090172 0.9510565 0
vn -0.3090172 0.9510565 0
vn -0.8090177 0.5877844 0

usemtl Black
f 3/3/2 4/4/2 2/2/1 1/1/1
f 5/7/3 6/8/3 4/6/2 3/5/2
f 7/11/4 8/12/4 6/10/3 5/9/3
f 9/15/5 10/16/5 8/14/4 7/13/4
f 11/19/6 12/20/6 10/18/5 9/17/5
f 1/23/1 2/24/1 12/22/6 11/21/6
f 79/109/18 80/110/18 71/112/18 72/111/18
f 81/119/11 73/118/11 71/117/11 80/116/11
f 82/123/14 79/126/14 72/125/14 74/124/14
f 74/132/19 73/131/19 81/129/19 82/130/19

usemtl BlueGlow
f 18/30/7 19/31/7 20/32/7
f 16/28/7 19/31/7 18/30/7
f 14/26/7 19/31/7 16/28/7
f 13/25/7 19/31/7 14/26/7
f 24/36/7 19/31/7 13/25/7
f 20/32/7 19/31/7 24/36/7
f 23/35/8 22/34/8 21/33/8
f 21/33/8 22/34/8 17/29/8
f 17/29/8 22/34/8 15/27/8
f 26/38/8 22/34/8 25/37/8
f 25/37/8 22/34/8 23/35/8
f 15/27/8 22/34/8 26/38/8
f 55/51/8 21/33/8 17/29/8
f 55/51/8 56/52/8 21/33/8
f 56/52/8 23/35/8 21/33/8
f 56/52/8 54/55/8 23/35/8
f 54/55/8 25/37/8 23/35/8
f 54/55/8 53/58/8 25/37/8
f 53/58/8 26/38/8 25/37/8
f 53/58/8 52/56/8 26/38/8
f 52/56/8 15/27/8 26/38/8
f 52/56/8 51/53/8 15/27/8
f 51/53/8 17/29/8 15/27/8
f 51/53/8 55/51/8 17/29/8
f 30/42/9 28/40/9 27/39/9
f 27/39/9 29/41/9 30/42/9
f 29/42/10 27/40/10 31/39/10
f 31/39/10 32/41/10 29/42/10
f 34/42/11 33/40/11 28/39/11
f 28/39/11 30/41/11 34/42/11
f 36/42/12 35/40/12 33/39/12
f 33/39/12 34/41/12 36/42/12
f 38/42/13 37/40/13 35/39/13
f 35/39/13 36/41/13 38/42/13
f 32/42/14 31/40/14 37/39/14
f 37/39/14 38/41/14 32/42/14
f 42/46/14 40/44/14 39/43/14
f 39/43/14 41/45/14 42/46/14
f 41/46/10 39/44/10 43/43/10
f 43/43/10 44/45/10 41/46/10
f 46/47/13 45/44/13 40/43/13
f 40/43/13 42/45/13 46/47/13
f 48/47/12 47/44/12 45/43/12
f 45/43/12 46/48/12 48/47/12
f 50/46/11 49/44/11 47/43/11
f 47/43/11 48/48/11 50/46/11
f 44/46/9 43/44/9 49/43/9
f 49/43/9 50/45/9 44/46/9
f 27/52/7 2/50/7 4/49/7
f 4/49/7 31/51/7 27/52/7
f 28/55/7 12/54/7 2/50/7
f 2/50/7 27/52/7 28/55/7
f 33/58/7 10/57/7 12/54/7
f 12/54/7 28/55/7 33/58/7
f 35/56/7 8/59/7 10/57/7
f 10/57/7 33/58/7 35/56/7
f 37/53/7 6/60/7 8/59/7
f 8/59/7 35/56/7 37/53/7
f 31/51/7 4/49/7 6/60/7
f 6/60/7 37/53/7 31/51/7
f 39/53/8 3/60/8 1/59/8
f 1/59/8 43/56/8 39/53/8
f 50/55/7 24/54/7 13/50/7
f 13/50/7 44/52/7 50/55/7
f 44/52/7 13/50/7 14/49/7
f 14/49/7 41/51/7 44/52/7
f 40/51/8 5/49/8 3/60/8
f 3/60/8 39/53/8 40/51/8
f 41/51/7 14/49/7 16/60/7
f 16/60/7 42/53/7 41/51/7
f 45/52/8 7/50/8 5/49/8
f 5/49/8 40/51/8 45/52/8
f 42/53/7 16/60/7 18/59/7
f 18/59/7 46/56/7 42/53/7
f 47/55/8 9/54/8 7/50/8
f 7/50/8 45/52/8 47/55/8
f 46/56/7 18/59/7 20/57/7
f 20/57/7 48/58/7 46/56/7
f 49/58/8 11/57/8 9/54/8
f 9/54/8 47/55/8 49/58/8
f 48/58/7 20/57/7 24/54/7
f 24/54/7 50/55/7 48/58/7
f 43/56/8 1/59/8 11/57/8
f 11/57/8 49/58/8 43/56/8
f 58/62/8 38/51/8 36/52/8
f 36/52/8 57/61/8 58/62/8
f 57/61/8 36/52/8 34/55/8
f 34/55/8 59/63/8 57/61/8
f 59/63/8 34/55/8 30/58/8
f 30/58/8 60/64/8 59/63/8
f 60/64/8 30/58/8 29/56/8
f 29/56/8 61/65/8 60/64/8
f 61/65/8 29/56/8 32/53/8
f 32/53/8 62/66/8 61/65/8
f 62/66/8 32/53/8 38/51/8
f 38/51/8 58/62/8 62/66/8
f 55/70/13 58/68/13 57/67/13
f 57/67/13 56/69/13 55/70/13
f 56/70/12 57/68/12 59/67/12
f 59/67/12 54/69/12 56/70/12
f 54/70/11 59/68/11 60/67/11
f 60/67/11 53/69/11 54/70/11
f 53/70/9 60/68/9 61/67/9
f 61/67/9 52/69/9 53/70/9
f 52/70/10 61/68/10 62/67/10
f 62/67/10 51/69/10 52/70/10
f 51/70/14 62/68/14 58/67/14
f 58/67/14 55/69/14 51/70/14

usemtl GreyMetal
f 123/295/11 143/296/11 125/297/11
f 125/297/11 143/296/11 127/301/11
f 127/301/11 143/296/11 129/303/11
f 129/303/11 143/296/11 131/305/11
f 131/305/11 143/296/11 133/307/11
f 133/307/11 143/296/11 135/309/11
f 135/309/11 143/296/11 137/311/11
f 137/311/11 143/296/11 139/313/11
f 139/313/11 143/296/11 141/315/11
f 141/315/11 143/296/11 123/295/11
f 126/300/14 144/299/14 124/298/14
f 128/302/14 144/299/14 126/300/14
f 130/304/14 144/299/14 128/302/14
f 132/306/14 144/299/14 130/304/14
f 134/308/14 144/299/14 132/306/14
f 136/310/14 144/299/14 134/308/14
f 138/312/14 144/299/14 136/310/14
f 140/314/14 144/299/14 138/312/14
f 142/316/14 144/299/14 140/314/14
f 124/298/14 144/299/14 142/316/14
f 66/74/14 64/72/14 63/71/14
f 63/71/14 65/73/14 66/74/14
f 68/78/1 67/76/1 64/75/1
f 64/75/1 66/77/1 68/78/1
f 70/82/11 69/80/11 67/79/11
f 67/79/11 68/81/11 70/82/11
f 74/86/15 72/84/15 71/83/15
f 71/83/15 73/85/15 74/86/15
f 68/90/8 66/88/8 65/87/8
f 65/87/8 70/89/8 68/90/8
f 64/94/7 67/92/7 69/91/7
f 69/91/7 63/93/7 64/94/7
f 76/98/16 63/96/16 69/95/16
f 69/95/16 75/97/16 76/98/16
f 75/100/11 69/80/11 70/82/11
f 70/82/11 77/99/11 75/100/11
f 78/102/14 65/73/14 63/71/14
f 63/71/14 76/101/14 78/102/14
f 77/106/17 70/104/17 65/103/17
f 65/103/17 78/105/17 77/106/17
f 75/107/18 80/110/18 79/109/18
f 79/109/18 76/108/18 75/107/18
f 81/115/11 80/114/11 75/100/11
f 75/100/11 77/113/11 81/115/11
f 76/101/14 79/122/14 82/121/14
f 82/121/14 78/120/14 76/101/14
f 81/129/19 77/128/19 78/127/19
f 78/127/19 82/130/19 81/129/19
f 86/136/1 84/134/1 83/133/20
f 83/133/20 85/135/20 86/136/1
f 90/140/21 88/138/21 87/137/4
f 87/137/4 89/139/4 90/140/21
f 85/144/20 83/142/20 91/141/22
f 91/141/22 92/143/22 85/144/20
f 94/148/23 93/146/23 88/145/21
f 88/145/21 90/147/21 94/148/23
f 92/152/22 91/150/22 95/149/24
f 95/149/24 96/151/24 92/152/22
f 98/156/25 97/154/25 93/153/23
f 93/153/23 94/155/23 98/156/25
f 96/160/24 95/158/24 99/157/26
f 99/157/26 100/159/26 96/160/24
f 102/164/27 101/162/27 97/161/25
f 97/161/25 98/163/25 102/164/27
f 100/168/26 99/166/26 103/165/4
f 103/165/4 104/167/4 100/168/26
f 106/172/1 105/170/1 101/169/27
f 101/169/27 102/171/27 106/172/1
f 104/176/4 103/174/4 107/173/21
f 107/173/21 108/175/21 104/176/4
f 110/180/20 109/178/20 105/177/1
f 105/177/1 106/179/1 110/180/20
f 108/184/21 107/182/21 111/181/23
f 111/181/23 112/183/23 108/184/21
f 114/188/22 113/186/22 109/185/20
f 109/185/20 110/187/20 114/188/22
f 112/192/23 111/190/23 115/189/25
f 115/189/25 116/191/25 112/192/23
f 118/196/24 117/194/24 113/193/22
f 113/193/22 114/195/22 118/196/24
f 116/200/25 115/198/25 119/197/27
f 119/197/27 120/199/27 116/200/25
f 122/204/26 121/202/26 117/201/24
f 117/201/24 118/203/24 122/204/26
f 120/208/27 119/206/27 84/205/1
f 84/205/1 86/207/1 120/208/27
f 89/212/4 87/210/4 121/209/26
f 121/209/26 122/211/26 89/212/4
f 88/216/28 83/214/28 84/213/28
f 84/213/28 87/215/28 88/216/28
f 89/220/29 86/218/29 85/217/29
f 85/217/29 90/219/29 89/220/29
f 93/222/28 91/221/28 83/214/28
f 83/214/28 88/216/28 93/222/28
f 90/219/29 85/217/29 92/223/29
f 92/223/29 94/224/29 90/219/29
f 97/226/28 95/225/28 91/221/28
f 91/221/28 93/222/28 97/226/28
f 94/229/29 92/223/29 96/227/29
f 96/227/29 98/228/29 94/229/29
f 101/232/28 99/230/28 95/225/28
f 95/225/28 97/231/28 101/232/28
f 98/228/29 96/227/29 100/233/29
f 100/233/29 102/234/29 98/228/29
f 105/236/28 103/235/28 99/230/28
f 99/230/28 101/232/28 105/236/28
f 102/234/29 100/233/29 104/237/29
f 104/237/29 106/238/29 102/234/29
f 109/240/28 107/239/28 103/235/28
f 103/235/28 105/236/28 109/240/28
f 106/238/29 104/237/29 108/241/29
f 108/241/29 110/242/29 106/238/29
f 113/244/28 111/243/28 107/239/28
f 107/239/28 109/240/28 113/244/28
f 110/242/29 108/241/29 112/245/29
f 112/245/29 114/246/29 110/242/29
f 117/248/28 115/247/28 111/243/28
f 111/243/28 113/244/28 117/248/28
f 114/246/29 112/245/29 116/249/29
f 116/249/29 118/250/29 114/246/29
f 121/252/28 119/251/28 115/247/28
f 115/247/28 117/248/28 121/252/28
f 118/250/29 116/249/29 120/253/29
f 120/253/29 122/254/29 118/250/29
f 87/215/28 84/213/28 119/251/28
f 119/251/28 121/252/28 87/215/28
f 122/254/29 120/253/29 86/218/29
f 86/218/29 89/220/29 122/254/29
f 126/258/30 124/256/1 123/255/1
f 123/255/1 125/257/30 126/258/30
f 128/262/31 126/260/30 125/259/30
f 125/259/30 127/261/31 128/262/31
f 130/266/32 128/264/31 127/263/31
f 127/263/31 129/265/32 130/266/32
f 132/270/33 130/268/32 129/267/32
f 129/267/32 131/269/33 132/270/33
f 134/274/4 132/272/33 131/271/33
f 131/271/33 133/273/4 134/274/4
f 136/278/34 134/276/4 133/275/4
f 133/275/4 135/277/34 136/278/34
f 138/282/35 136/280/34 135/279/34
f 135/279/34 137/281/35 138/282/35
f 140/286/36 138/284/35 137/283/35
f 137/283/35 139/285/36 140/286/36
f 142/290/37 140/288/36 139/287/36
f 139/287/36 141/289/37 142/290/37
f 124/294/1 142/292/37 141/291/37
f 141/291/37 123/293/1 124/294/1

